<?xml version="1.0" encoding="utf-8"?>
<!-- Generator: Adobe Illustrator 25.2.3, SVG Export Plug-In . SVG Version: 6.00 Build 0)  -->
<svg version="1.1" id="Layer_4" xmlns="http://www.w3.org/2000/svg" xmlns:xlink="http://www.w3.org/1999/xlink" x="0px" y="0px"
	 viewBox="0 0 2861 1000" style="enable-background:new 0 0 2861 1000;" xml:space="preserve">
<style type="text/css">
	.st0{fill:#FFFFFF;}
</style>
<ellipse class="st0" cx="2211.7" cy="586" rx="65.5" ry="70.1"/>
<path class="st0" d="M2610.5,80H251.4c-86.8,0-157.5,70.7-157.5,157.5v0.5v524.5v0.5c0,86.8,70.7,157.5,157.5,157.5h525
	c4.3,0,8.6-0.2,12.9-0.5h1821.2c86.8,0,157.5-70.7,157.5-157.5v-525C2768,150.7,2697.4,80,2610.5,80z M868.3,763
	c0,47.3-36,86.4-82,91.3H251.4c-50.7,0-91.9-41.2-91.9-91.9V238c0-50.7,41.2-91.9,91.9-91.9h525c50.7,0,91.9,41.2,91.9,91.9V763z
	 M1230.9,483.2l-5.7,31.1c-0.6,4.5-4.5,7.9-9,6.2c-9.6-1.7-18.6-2.8-27.7-2.8c-24.9,0-47.5,9-47.5,45.2v128.3c0,5.1-2.8,7.9-7.9,7.9
	H1097c-5.1,0-7.9-2.8-7.9-7.9V562.9c0-70.1,41.8-95.5,93.8-95.5c13.6,0,27.7,1.7,41.8,5.6C1229.2,474.7,1232.6,478.7,1230.9,483.2z
	 M1499.3,592.8c0,75.1-48,113-110.7,113s-110.7-37.9-110.7-113V481c0-5.1,2.8-7.9,7.9-7.9h36.2c5.1,0,7.9,2.8,7.9,7.9v111.9
	c0,52,33.3,63.3,58.8,63.3s58.8-11.3,58.8-63.3V481c0-5.1,2.8-7.9,7.9-7.9h36.2c5.1,0,7.9,2.8,7.9,7.9V592.8z M1782.3,692.8
	c1.7,2.3,0.6,6.2-3.4,6.2h-47.5c-5.1,0-9.6-2.3-12.4-6.2l-55.9-81.9h-38.4v80.2c0,5.1-2.8,7.9-7.9,7.9h-36.2c-5.1,0-7.9-2.8-7.9-7.9
	V311.5c0-5.1,2.8-7.9,7.9-7.9h36.2c5.1,0,7.9,2.8,7.9,7.9v249.7h38.4l55.9-81.4c2.8-4.5,6.8-6.8,12.4-6.8h47.5c4,0,5.1,4,3.4,6.2
	L1705.5,586L1782.3,692.8z M2053,692.8c1.7,2.3,0.6,6.2-3.4,6.2h-47.5c-5.1,0-9.6-2.3-12.4-6.2l-55.9-81.9h-38.4v80.2
	c0,5.1-2.8,7.9-7.9,7.9h-36.2c-5.1,0-7.9-2.8-7.9-7.9V311.5c0-5.1,2.8-7.9,7.9-7.9h36.2c5.1,0,7.9,2.8,7.9,7.9v249.7h38.4l55.9-81.4
	c2.8-4.5,6.8-6.8,12.4-6.8h47.5c4,0,5.1,4,3.4,6.2L1976.1,586L2053,692.8z M2211.7,705.8c-66.1,0-117.5-41.2-117.5-119.8
	s51.4-119.8,117.5-119.8s117.5,41.2,117.5,119.8S2277.8,705.8,2211.7,705.8z M2533.2,483.2l-5.7,31.1c-0.6,4.5-4.5,7.9-9,6.2
	c-9.6-1.7-18.6-2.8-27.7-2.8c-24.9,0-47.5,9-47.5,45.2v128.3c0,5.1-2.8,7.9-7.9,7.9h-36.2c-5.1,0-7.9-2.8-7.9-7.9V562.9
	c0-70.1,41.8-95.5,93.8-95.5c13.6,0,27.7,1.7,41.8,5.6C2531.5,474.7,2534.9,478.7,2533.2,483.2z"/>
<path class="st0" d="M712.4,436.2c0-74-59.9-134.2-133.5-134.2H315.4v75.6h263.5c32.2,0,58.4,26.3,58.4,58.7S611.1,495,578.9,495
	H315.4v75.8l1.8-0.2c1.2-0.1,2.6-0.1,3.8-0.1h155.9c69.6,0,127.1,56.9,128.2,126.9v1.6h75.3l0-1.7c-0.4-50.5-19.4-98.7-53.3-136
	C678.2,541.5,712.4,491.5,712.4,436.2z"/>
</svg>
