<?xml version="1.0" encoding="utf-8"?>
<!-- Generator: Adobe Illustrator 25.2.3, SVG Export Plug-In . SVG Version: 6.00 Build 0)  -->
<svg version="1.1" xmlns="http://www.w3.org/2000/svg" xmlns:xlink="http://www.w3.org/1999/xlink" x="0px" y="0px"
	 viewBox="0 0 1000 1000" style="enable-background:new 0 0 1000 1000;" xml:space="preserve">
<style type="text/css">
	.st0{display:none;}
	.st1{display:inline;fill:#231F20;}
	.st2{display:inline;}
	.st3{fill:#F5B200;}
	.st4{fill:#00CF83;}
</style>
<g id="Layer_6" class="st0">
	<rect class="st1" width="1000" height="1000"/>
</g>
<g id="Layer_1" class="st0">
	<g class="st2">
		<path class="st3" d="M762.4,80.5h-525c-86.8,0-157.5,70.7-157.5,157.5v525c0,86.8,70.7,157.5,157.5,157.5h525
			c86.8,0,157.5-70.7,157.5-157.5V238C919.9,151.2,849.2,80.5,762.4,80.5z M854.2,763c0,50.7-41.2,91.9-91.9,91.9H587v-68
			c0-6.8-5.5-12.3-12.3-12.3h-41.4c-6.8,0-12.3,5.5-12.3,12.3v68h-42.4v-68c0-6.8-5.5-12.3-12.3-12.3H425c-6.8,0-12.3,5.5-12.3,12.3
			v68H237.4c-50.7,0-91.9-41.2-91.9-91.9V238c0-50.7,41.2-91.9,91.9-91.9h175.4v68c0,6.8,5.5,12.3,12.3,12.3h41.4
			c6.8,0,12.3-5.5,12.3-12.3v-68h42.4v68c0,6.8,5.5,12.3,12.3,12.3h41.4c6.8,0,12.3-5.5,12.3-12.3v-68h175.4
			c50.7,0,91.9,41.2,91.9,91.9V763z"/>
		<path class="st3" d="M451,616.7c-1.9-1.9-2.8-3.9-2.8-6.2s0.9-4.3,2.8-6.2l169.5-149.8c10.1-9,17.4-18.9,21.9-29.7
			c4.9-11.2,7.3-22.8,7.3-34.8c0-25.1-8.2-45.6-24.7-61.7c-16.5-16.1-38-24.1-64.5-24.1H356.8v78h182.9c2.2,0,4.3,0.9,6.2,2.8
			c1.9,1.5,2.8,3.4,2.8,5.6c0,2.2-0.9,4.1-2.8,5.6L378.7,545.4c-11.6,9.7-19.8,20.2-24.7,31.4c-4.5,10.9-6.7,22.3-6.7,34.2
			c0,25.1,8.2,45.6,24.7,61.7c16.5,16.1,38,24.1,64.5,24.1h216v-78H457.8C455.2,618.9,452.9,618.2,451,616.7z"/>
	</g>
</g>
<g id="Layer_5" class="st0">
	<g class="st2">
		<path class="st4" d="M762.4,80.5h-525c-86.8,0-157.5,70.7-157.5,157.5v525c0,86.8,70.7,157.5,157.5,157.5h525
			c86.8,0,157.5-70.7,157.5-157.5V238C919.9,151.2,849.2,80.5,762.4,80.5z M237.4,854.9c-14.6,0-28.4-3.5-40.7-9.6l48.8-48.8
			c4.8-4.8,4.8-12.6,0-17.4l-29.2-29.2c-4.8-4.8-12.6-4.8-17.4,0L152,796.7c-4.1-10.4-6.5-21.8-6.5-33.7V238
			c0-50.7,41.2-91.9,91.9-91.9h227v68c0,6.8,5.5,12.3,12.3,12.3H518c6.8,0,12.3-5.5,12.3-12.3v-68h232.1c50.7,0,91.9,41.2,91.9,91.9
			v525c0,11.9-2.3,23.2-6.5,33.7l-46.8-46.8c-4.8-4.8-12.6-4.8-17.4,0l-29.2,29.2c-4.8,4.8-4.8,12.6,0,17.4l48.8,48.8
			c-12.3,6.1-26.1,9.6-40.7,9.6H237.4z"/>
		<path class="st4" d="M486.5,552.7H589v59.6c0,7.6-2.1,9.7-9.7,9.7h-158c-7.7,0-9.7-2.1-9.7-9.7V388c0-7.6,2.1-9.7,9.7-9.7h156.6
			c7.7,0,9.7,2.1,9.7,9.7v47.2h85.1v-53.6c0-55-25.6-80.7-80.7-80.7H407c-55,0-80.7,25.6-80.7,80.7v237.8c0,27.9,6.6,47.9,20.2,61.4
			c13.2,13,32.5,19.3,58.9,19.3c0.7,0,1.5,0,2.2,0h185.1c55,0,80.7-25.6,80.7-80.7V478.2H486.5V552.7z"/>
	</g>
</g>
<g id="Layer_4">
	<g>
		<path d="M237.4,920.5h525c86.8,0,157.5-70.7,157.5-157.5V238c0-86.8-70.7-157.5-157.5-157.5h-525c-86.8,0-157.5,70.7-157.5,157.5
			v525C79.9,849.9,150.5,920.5,237.4,920.5z M145.5,238c0-50.7,41.2-91.9,91.9-91.9h525c50.7,0,91.9,41.2,91.9,91.9v525
			c0,50.7-41.2,91.9-91.9,91.9h-525c-50.7,0-91.9-41.2-91.9-91.9V238z"/>
		<path d="M307,570.5h155.9c69.6,0,127.1,56.9,128.2,126.9v1.6h75.3l0-1.7c-0.4-50.5-19.4-98.7-53.3-136
			c51.1-19.9,85.3-69.9,85.3-125.2c0-74-59.9-134.2-133.5-134.2H301.4v75.6h263.5c32.2,0,58.4,26.3,58.4,58.7S597.1,495,564.9,495
			H301.4v75.8l1.8-0.2C304.4,570.5,305.7,570.5,307,570.5z"/>
	</g>
</g>
<g id="Layer_3" class="st0">
	<g class="st2">
		<path d="M368.8,534.8c-7.1,14.2-10.7,29.6-10.7,46c0,22.1,5.2,41.9,15.7,59.5c10.9,17.2,25.3,31.1,43.2,41.5
			c18,10.1,38,15.2,60.1,15.2h164.5v-79.2H493.4c-12,0-22.1-3.7-30.3-11.2c-7.9-7.5-11.8-17-11.8-28.6s3.9-21.3,11.8-29.2
			c8.2-7.9,18.3-11.8,30.3-11.8h129.1v-78.6H490.6c-10.9,0-20.2-3.6-28.1-10.7c-7.5-7.1-11.2-16.1-11.2-26.9s3.7-19.8,11.2-26.9
			c7.9-7.5,17.2-11.2,28.1-11.2l151,0.6v-79.2H476c-21.3,0-40.8,5.1-58.4,15.2c-17.6,9.7-31.6,23.2-42.1,40.4
			c-10.5,17.2-15.7,36.5-15.7,57.8c0,15.3,3.6,29.9,10.7,43.8c7.1,13.8,16.5,25.8,28.1,35.9C386.2,507.6,376.3,520.2,368.8,534.8z"
			/>
		<path d="M237.4,920.5h525c86.8,0,157.5-70.7,157.5-157.5V238c0-86.8-70.7-157.5-157.5-157.5h-525c-86.8,0-157.5,70.7-157.5,157.5
			v525C79.9,849.9,150.5,920.5,237.4,920.5z M145.5,238c0-50.7,41.2-91.9,91.9-91.9h525c15.2,0,29.5,3.8,42.1,10.3l-50.2,50.2
			c-4.8,4.8-4.8,12.6,0,17.4l29.2,29.2c4.8,4.8,12.6,4.8,17.4,0l47.4-47.4c3.8,10,5.9,20.8,5.9,32.2v525c0,50.7-41.2,91.9-91.9,91.9
			h-525c-13.3,0-25.9-2.9-37.3-8l52.5-52.5c4.8-4.8,4.8-12.6,0-17.4l-29.2-29.2c-4.8-4.8-12.6-4.8-17.4,0l-52.5,52.5
			c-5.1-11.4-8-24-8-37.3V238z"/>
	</g>
</g>
<g id="Layer_2" class="st0">
	<g class="st2">
		<path d="M598.4,472.1c-18.7-9.7-40.5-14.6-64.8-14.6h-63.4c-10.9,0-19.8-3.6-27.2-11.1c-6.6-7.4-10.3-17-10.3-27.1
			c0-11.5,3.3-20.1,10.3-27.1c7.2-7.9,16.1-11.7,27.2-11.7h161.8v-75.6H459.7c-20.6,0-40,5-59.1,15.3
			c-18.6,10.4-32.5,23.8-42.3,40.9C348,378.1,343,398.1,343,422.1c0,23.7,5.2,43.9,16,61.8c11.3,17.6,25.8,30.6,44.4,39.5
			c18.5,8.9,38.8,13.2,62,13.2h60.6c10.9,0,21.3,4.4,29.3,12.4c8.1,8.1,12.4,18.5,12.4,30c0,10.6-4.1,20.1-12.4,29.3
			c-8,8-18.4,12.4-29.3,12.4H359.2v75.6h180.1c21.5,0,40.8-4.8,59.1-14.6c18.2-10.5,32.1-24.6,42.3-43c10.6-19.1,16-42,16-68.1
			c0-23.3-5-42.5-15.3-59C630.8,493.8,616.7,480.8,598.4,472.1z"/>
		<path d="M762.4,80.5h-525c-86.8,0-157.5,70.7-157.5,157.5v525c0,86.8,70.7,157.5,157.5,157.5h525c86.8,0,157.5-70.7,157.5-157.5
			V238C919.9,151.2,849.2,80.5,762.4,80.5z M762.4,854.9H532.8V785c0-6.8-5.5-12.3-12.3-12.3h-41.4c-6.8,0-12.3,5.5-12.3,12.3v69.9
			H237.4c-50.7,0-91.9-41.2-91.9-91.9V533.5h69.9c6.8,0,12.3-5.5,12.3-12.3v-41.4c0-6.8-5.5-12.3-12.3-12.3h-69.9V238
			c0-50.7,41.2-91.9,91.9-91.9h229.5v69.9c0,6.8,5.5,12.3,12.3,12.3h41.4c6.8,0,12.3-5.5,12.3-12.3v-69.9h229.5
			c50.7,0,91.9,41.2,91.9,91.9v229.5h-69.9c-6.8,0-12.3,5.5-12.3,12.3v41.4c0,6.8,5.5,12.3,12.3,12.3h69.9V763
			C854.2,813.7,813,854.9,762.4,854.9z"/>
	</g>
</g>
</svg>
